# xmcd
# 
# Track frame offsets:
#     150
#     20199
#     38869
#     57362
#     76057
#     90740
#     106618
#     125483
#     141289
#     157387
#     175992
# 
# Disc length: 2731
# 
# Revision: 0
# Processed by: cddbd v1.5.2PL0 Copyright (c) Steve Scherf et al.
# Submitted via: fre:ac v1.0.27
# 
DISCID=930aa90b
DTITLE=Electric Light Orchestra - Live
DYEAR=0
DGENRE=
TTITLE0=Evil Woman [Live]
TTITLE1=Showdown [Live]
TTITLE2=Secret Messages [Live]
TTITLE3=Livin' Thing [Live]
TTITLE4=Sweet Talkin' Woman [Live]
TTITLE5=Mr. Blue Sky [Live]
TTITLE6=Can't Get It Out of My Head [Live]
TTITLE7=Twilight [Live]
TTITLE8=Confusion [Live]
TTITLE9=Don't Bring Me Down [Live]
TTITLE10=Roll Over Beethoven [Live]
EXTD=
EXTT0=
EXTT1=
EXTT2=
EXTT3=
EXTT4=
EXTT5=
EXTT6=
EXTT7=
EXTT8=
EXTT9=
EXTT10=
PLAYORDER=
